<?xml version="1.0" standalone="no"?>
<svg xmlns:xlink="http://www.w3.org/1999/xlink" id="wave" style="transform:rotate(180deg); transition: 0.3s" viewBox="0 0 1440 270" version="1.1" xmlns="http://www.w3.org/2000/svg"><defs><linearGradient id="sw-gradient-0" x1="0" x2="0" y1="1" y2="0"><stop stop-color="rgba(238, 235, 250, 1)" offset="0%"/><stop stop-color="rgba(238, 235, 250, 1)" offset="100%"/></linearGradient></defs><path style="transform:translate(0, 0px); opacity:1" fill="url(#sw-gradient-0)" d="M0,108L18.5,121.5C36.9,135,74,162,111,153C147.7,144,185,99,222,108C258.5,117,295,180,332,202.5C369.2,225,406,207,443,184.5C480,162,517,135,554,103.5C590.8,72,628,36,665,49.5C701.5,63,738,126,775,144C812.3,162,849,135,886,130.5C923.1,126,960,144,997,166.5C1033.8,189,1071,216,1108,225C1144.6,234,1182,225,1218,216C1255.4,207,1292,198,1329,175.5C1366.2,153,1403,117,1440,85.5C1476.9,54,1514,27,1551,54C1587.7,81,1625,162,1662,193.5C1698.5,225,1735,207,1772,193.5C1809.2,180,1846,171,1883,166.5C1920,162,1957,162,1994,157.5C2030.8,153,2068,144,2105,135C2141.5,126,2178,117,2215,135C2252.3,153,2289,198,2326,189C2363.1,180,2400,117,2437,90C2473.8,63,2511,72,2548,67.5C2584.6,63,2622,45,2640,36L2658.5,27L2658.5,270L2640,270C2621.5,270,2585,270,2548,270C2510.8,270,2474,270,2437,270C2400,270,2363,270,2326,270C2289.2,270,2252,270,2215,270C2178.5,270,2142,270,2105,270C2067.7,270,2031,270,1994,270C1956.9,270,1920,270,1883,270C1846.2,270,1809,270,1772,270C1735.4,270,1698,270,1662,270C1624.6,270,1588,270,1551,270C1513.8,270,1477,270,1440,270C1403.1,270,1366,270,1329,270C1292.3,270,1255,270,1218,270C1181.5,270,1145,270,1108,270C1070.8,270,1034,270,997,270C960,270,923,270,886,270C849.2,270,812,270,775,270C738.5,270,702,270,665,270C627.7,270,591,270,554,270C516.9,270,480,270,443,270C406.2,270,369,270,332,270C295.4,270,258,270,222,270C184.6,270,148,270,111,270C73.8,270,37,270,18,270L0,270Z"/></svg>