<svg xmlns="http://www.w3.org/2000/svg" viewBox="0 0 54.94 61.17"><defs><style>.cls-1{fill:#9c92a0;}</style></defs><g id="Layer_2" data-name="Layer 2"><g id="Layer_1-2" data-name="Layer 1"><path class="cls-1" d="M53.24,60.32a.85.85,0,1,1,.85.85A.85.85,0,0,1,53.24,60.32Z"/><path class="cls-1" d="M39.93,60.32a.85.85,0,1,1,.85.85A.85.85,0,0,1,39.93,60.32Z"/><path class="cls-1" d="M26.62,60.32a.85.85,0,1,1,.85.85A.85.85,0,0,1,26.62,60.32Z"/><path class="cls-1" d="M13.31,60.32a.85.85,0,1,1,.85.85A.85.85,0,0,1,13.31,60.32Z"/><path class="cls-1" d="M0,60.32a.85.85,0,1,1,.85.85A.85.85,0,0,1,0,60.32Z"/><path class="cls-1" d="M53.24,48.42a.85.85,0,1,1,.85.85A.85.85,0,0,1,53.24,48.42Z"/><path class="cls-1" d="M39.93,48.42a.85.85,0,1,1,.85.85A.85.85,0,0,1,39.93,48.42Z"/><path class="cls-1" d="M26.62,48.42a.85.85,0,1,1,.85.85A.85.85,0,0,1,26.62,48.42Z"/><path class="cls-1" d="M13.31,48.42a.85.85,0,1,1,.85.85A.85.85,0,0,1,13.31,48.42Z"/><path class="cls-1" d="M0,48.42a.85.85,0,1,1,.85.85A.85.85,0,0,1,0,48.42Z"/><path class="cls-1" d="M53.24,36.53a.85.85,0,1,1,.85.85A.85.85,0,0,1,53.24,36.53Z"/><circle class="cls-1" cx="40.78" cy="36.53" r="0.85"/><circle class="cls-1" cx="27.47" cy="36.53" r="0.85"/><path class="cls-1" d="M13.31,36.53a.85.85,0,1,1,.85.85A.85.85,0,0,1,13.31,36.53Z"/><path class="cls-1" d="M0,36.53a.85.85,0,1,1,.85.85A.85.85,0,0,1,0,36.53Z"/><path class="cls-1" d="M53.24,24.64a.85.85,0,1,1,.85.85A.85.85,0,0,1,53.24,24.64Z"/><circle class="cls-1" cx="40.78" cy="24.64" r="0.85"/><circle class="cls-1" cx="27.47" cy="24.64" r="0.85"/><path class="cls-1" d="M13.31,24.64a.85.85,0,1,1,.85.85A.85.85,0,0,1,13.31,24.64Z"/><path class="cls-1" d="M0,24.64a.85.85,0,1,1,.85.85A.85.85,0,0,1,0,24.64Z"/><path class="cls-1" d="M53.24,12.74a.85.85,0,1,1,.85.85A.85.85,0,0,1,53.24,12.74Z"/><circle class="cls-1" cx="40.78" cy="12.74" r="0.85"/><circle class="cls-1" cx="27.47" cy="12.74" r="0.85"/><path class="cls-1" d="M13.31,12.74a.85.85,0,1,1,.85.85A.85.85,0,0,1,13.31,12.74Z"/><path class="cls-1" d="M0,12.74a.85.85,0,1,1,.85.85A.85.85,0,0,1,0,12.74Z"/><path class="cls-1" d="M53.24.85a.85.85,0,1,1,.85.85A.85.85,0,0,1,53.24.85Z"/><path class="cls-1" d="M39.93.85a.85.85,0,1,1,.85.85A.85.85,0,0,1,39.93.85Z"/><path class="cls-1" d="M26.62.85a.85.85,0,1,1,.85.85A.85.85,0,0,1,26.62.85Z"/><path class="cls-1" d="M13.31.85a.85.85,0,1,1,.85.85A.85.85,0,0,1,13.31.85Z"/><path class="cls-1" d="M0,.85a.85.85,0,1,1,.85.85A.85.85,0,0,1,0,.85Z"/></g></g></svg>