<?xml version="1.0" standalone="no"?>
<svg xmlns:xlink="http://www.w3.org/1999/xlink" id="wave" style="transform:rotate(0deg); transition: 0.3s" viewBox="0 0 1440 390" version="1.1" xmlns="http://www.w3.org/2000/svg"><defs><linearGradient id="sw-gradient-0" x1="0" x2="0" y1="1" y2="0"><stop stop-color="rgba(255, 255, 255, 1)" offset="0%"/><stop stop-color="rgba(255, 255, 255, 1)" offset="100%"/></linearGradient></defs><path style="transform:translate(0, 0px); opacity:1" fill="url(#sw-gradient-0)" d="M0,117L80,143C160,169,320,221,480,260C640,299,800,325,960,279.5C1120,234,1280,117,1440,71.5C1600,26,1760,52,1920,91C2080,130,2240,182,2400,188.5C2560,195,2720,156,2880,130C3040,104,3200,91,3360,78C3520,65,3680,52,3840,91C4000,130,4160,221,4320,221C4480,221,4640,130,4800,110.5C4960,91,5120,143,5280,182C5440,221,5600,247,5760,214.5C5920,182,6080,91,6240,71.5C6400,52,6560,104,6720,130C6880,156,7040,156,7200,188.5C7360,221,7520,286,7680,318.5C7840,351,8000,351,8160,292.5C8320,234,8480,117,8640,71.5C8800,26,8960,52,9120,97.5C9280,143,9440,208,9600,201.5C9760,195,9920,117,10080,130C10240,143,10400,247,10560,247C10720,247,10880,143,11040,97.5C11200,52,11360,65,11440,71.5L11520,78L11520,390L11440,390C11360,390,11200,390,11040,390C10880,390,10720,390,10560,390C10400,390,10240,390,10080,390C9920,390,9760,390,9600,390C9440,390,9280,390,9120,390C8960,390,8800,390,8640,390C8480,390,8320,390,8160,390C8000,390,7840,390,7680,390C7520,390,7360,390,7200,390C7040,390,6880,390,6720,390C6560,390,6400,390,6240,390C6080,390,5920,390,5760,390C5600,390,5440,390,5280,390C5120,390,4960,390,4800,390C4640,390,4480,390,4320,390C4160,390,4000,390,3840,390C3680,390,3520,390,3360,390C3200,390,3040,390,2880,390C2720,390,2560,390,2400,390C2240,390,2080,390,1920,390C1760,390,1600,390,1440,390C1280,390,1120,390,960,390C800,390,640,390,480,390C320,390,160,390,80,390L0,390Z"/></svg>