<?xml version="1.0" standalone="no"?>
<svg xmlns:xlink="http://www.w3.org/1999/xlink" id="wave" style="transform:rotate(0deg); transition: 0.3s" viewBox="0 0 1440 190" version="1.1" xmlns="http://www.w3.org/2000/svg"><defs><linearGradient id="sw-gradient-0" x1="0" x2="0" y1="1" y2="0"><stop stop-color="rgba(180.236, 129.049, 112.609, 1)" offset="0%"/><stop stop-color="rgba(255, 255, 255, 1)" offset="100%"/></linearGradient></defs><path style="transform:translate(0, 0px); opacity:1" fill="url(#sw-gradient-0)" d="M0,57L80,69.7C160,82,320,108,480,126.7C640,146,800,158,960,136.2C1120,114,1280,57,1440,34.8C1600,13,1760,25,1920,44.3C2080,63,2240,89,2400,91.8C2560,95,2720,76,2880,63.3C3040,51,3200,44,3360,38C3520,32,3680,25,3840,44.3C4000,63,4160,108,4320,107.7C4480,108,4640,63,4800,53.8C4960,44,5120,70,5280,88.7C5440,108,5600,120,5760,104.5C5920,89,6080,44,6240,34.8C6400,25,6560,51,6720,63.3C6880,76,7040,76,7200,91.8C7360,108,7520,139,7680,155.2C7840,171,8000,171,8160,142.5C8320,114,8480,57,8640,34.8C8800,13,8960,25,9120,47.5C9280,70,9440,101,9600,98.2C9760,95,9920,57,10080,63.3C10240,70,10400,120,10560,120.3C10720,120,10880,70,11040,47.5C11200,25,11360,32,11440,34.8L11520,38L11520,190L11440,190C11360,190,11200,190,11040,190C10880,190,10720,190,10560,190C10400,190,10240,190,10080,190C9920,190,9760,190,9600,190C9440,190,9280,190,9120,190C8960,190,8800,190,8640,190C8480,190,8320,190,8160,190C8000,190,7840,190,7680,190C7520,190,7360,190,7200,190C7040,190,6880,190,6720,190C6560,190,6400,190,6240,190C6080,190,5920,190,5760,190C5600,190,5440,190,5280,190C5120,190,4960,190,4800,190C4640,190,4480,190,4320,190C4160,190,4000,190,3840,190C3680,190,3520,190,3360,190C3200,190,3040,190,2880,190C2720,190,2560,190,2400,190C2240,190,2080,190,1920,190C1760,190,1600,190,1440,190C1280,190,1120,190,960,190C800,190,640,190,480,190C320,190,160,190,80,190L0,190Z"/></svg>