<svg xmlns="http://www.w3.org/2000/svg" viewBox="0 0 193.69 65.19"><defs><style>.cls-1{fill:none;stroke:#f9ae14;stroke-miterlimit:10;stroke-width:2px;}.cls-2{fill:#010101;}</style></defs><g id="Layer_2" data-name="Layer 2"><g id="Layer_1-2" data-name="Layer 1"><rect class="cls-1" x="1" y="1" width="54.26" height="54.26" rx="1.47" transform="translate(56.26 56.26) rotate(180)"/><path class="cls-2" d="M59.93,64.34a.85.85,0,1,1,.85.85A.85.85,0,0,1,59.93,64.34Z"/><path class="cls-2" d="M46.62,64.34a.85.85,0,1,1,.85.85A.85.85,0,0,1,46.62,64.34Z"/><path class="cls-2" d="M33.31,64.34a.85.85,0,1,1,.85.85A.85.85,0,0,1,33.31,64.34Z"/><path class="cls-2" d="M20,64.34a.85.85,0,1,1,.85.85A.85.85,0,0,1,20,64.34Z"/><path class="cls-2" d="M6.69,64.34a.85.85,0,1,1,.85.85A.85.85,0,0,1,6.69,64.34Z"/><path class="cls-2" d="M59.93,52.44a.85.85,0,1,1,.85.85A.85.85,0,0,1,59.93,52.44Z"/><path class="cls-2" d="M46.62,52.44a.85.85,0,1,1,.85.85A.85.85,0,0,1,46.62,52.44Z"/><path class="cls-2" d="M33.31,52.44a.85.85,0,1,1,.85.85A.85.85,0,0,1,33.31,52.44Z"/><path class="cls-2" d="M20,52.44a.85.85,0,1,1,.85.85A.85.85,0,0,1,20,52.44Z"/><path class="cls-2" d="M6.69,52.44a.85.85,0,1,1,.85.85A.85.85,0,0,1,6.69,52.44Z"/><path class="cls-2" d="M59.93,40.55a.85.85,0,1,1,.85.85A.85.85,0,0,1,59.93,40.55Z"/><circle class="cls-2" cx="47.47" cy="40.55" r="0.85"/><circle class="cls-2" cx="34.16" cy="40.55" r="0.85"/><path class="cls-2" d="M20,40.55a.85.85,0,1,1,.85.85A.85.85,0,0,1,20,40.55Z"/><path class="cls-2" d="M6.69,40.55a.85.85,0,1,1,.85.85A.85.85,0,0,1,6.69,40.55Z"/><path class="cls-2" d="M59.93,28.66a.85.85,0,1,1,.85.85A.85.85,0,0,1,59.93,28.66Z"/><circle class="cls-2" cx="47.47" cy="28.66" r="0.85"/><circle class="cls-2" cx="34.16" cy="28.66" r="0.85"/><path class="cls-2" d="M20,28.66a.85.85,0,1,1,.85.85A.85.85,0,0,1,20,28.66Z"/><path class="cls-2" d="M6.69,28.66a.85.85,0,1,1,.85.85A.85.85,0,0,1,6.69,28.66Z"/><path class="cls-2" d="M59.93,16.76a.85.85,0,1,1,.85.85A.85.85,0,0,1,59.93,16.76Z"/><circle class="cls-2" cx="47.47" cy="16.76" r="0.85"/><circle class="cls-2" cx="34.16" cy="16.76" r="0.85"/><path class="cls-2" d="M20,16.76a.85.85,0,1,1,.85.85A.85.85,0,0,1,20,16.76Z"/><path class="cls-2" d="M6.69,16.76a.85.85,0,1,1,.85.85A.85.85,0,0,1,6.69,16.76Z"/><path class="cls-2" d="M59.93,4.87a.85.85,0,1,1,.85.85A.85.85,0,0,1,59.93,4.87Z"/><path class="cls-2" d="M46.62,4.87a.85.85,0,1,1,.85.85A.85.85,0,0,1,46.62,4.87Z"/><path class="cls-2" d="M33.31,4.87a.85.85,0,1,1,.85.85A.85.85,0,0,1,33.31,4.87Z"/><path class="cls-2" d="M20,4.87a.85.85,0,1,1,.85.85A.85.85,0,0,1,20,4.87Z"/><path class="cls-2" d="M6.69,4.87a.85.85,0,1,1,.85.85A.85.85,0,0,1,6.69,4.87Z"/><path class="cls-2" d="M126,64.34a.85.85,0,1,1,.85.85A.85.85,0,0,1,126,64.34Z"/><path class="cls-2" d="M112.65,64.34a.85.85,0,1,1,.85.85A.85.85,0,0,1,112.65,64.34Z"/><path class="cls-2" d="M99.34,64.34a.85.85,0,1,1,.85.85A.85.85,0,0,1,99.34,64.34Z"/><path class="cls-2" d="M86,64.34a.85.85,0,1,1,.85.85A.85.85,0,0,1,86,64.34Z"/><path class="cls-2" d="M72.73,64.34a.85.85,0,1,1,.84.85A.85.85,0,0,1,72.73,64.34Z"/><path class="cls-2" d="M126,52.44a.85.85,0,1,1,.85.85A.85.85,0,0,1,126,52.44Z"/><path class="cls-2" d="M112.65,52.44a.85.85,0,1,1,.85.85A.85.85,0,0,1,112.65,52.44Z"/><path class="cls-2" d="M99.34,52.44a.85.85,0,1,1,.85.85A.85.85,0,0,1,99.34,52.44Z"/><path class="cls-2" d="M86,52.44a.85.85,0,1,1,.85.85A.85.85,0,0,1,86,52.44Z"/><path class="cls-2" d="M72.73,52.44a.85.85,0,1,1,.84.85A.85.85,0,0,1,72.73,52.44Z"/><path class="cls-2" d="M126,40.55a.85.85,0,1,1,.85.85A.85.85,0,0,1,126,40.55Z"/><circle class="cls-2" cx="113.5" cy="40.55" r="0.85"/><circle class="cls-2" cx="100.19" cy="40.55" r="0.85"/><path class="cls-2" d="M86,40.55a.85.85,0,1,1,.85.85A.85.85,0,0,1,86,40.55Z"/><path class="cls-2" d="M72.73,40.55a.85.85,0,1,1,.84.85A.85.85,0,0,1,72.73,40.55Z"/><path class="cls-2" d="M126,28.66a.85.85,0,1,1,.85.85A.85.85,0,0,1,126,28.66Z"/><circle class="cls-2" cx="113.5" cy="28.66" r="0.85"/><circle class="cls-2" cx="100.19" cy="28.66" r="0.85"/><path class="cls-2" d="M86,28.66a.85.85,0,1,1,.85.85A.85.85,0,0,1,86,28.66Z"/><path class="cls-2" d="M72.73,28.66a.85.85,0,1,1,.84.85A.85.85,0,0,1,72.73,28.66Z"/><path class="cls-2" d="M126,16.76a.85.85,0,1,1,.85.85A.85.85,0,0,1,126,16.76Z"/><circle class="cls-2" cx="113.5" cy="16.76" r="0.85"/><circle class="cls-2" cx="100.19" cy="16.76" r="0.85"/><path class="cls-2" d="M86,16.76a.85.85,0,1,1,.85.85A.85.85,0,0,1,86,16.76Z"/><path class="cls-2" d="M72.73,16.76a.85.85,0,1,1,.84.85A.85.85,0,0,1,72.73,16.76Z"/><path class="cls-2" d="M126,4.87a.85.85,0,1,1,.85.85A.85.85,0,0,1,126,4.87Z"/><path class="cls-2" d="M112.65,4.87a.85.85,0,1,1,.85.85A.85.85,0,0,1,112.65,4.87Z"/><path class="cls-2" d="M99.34,4.87a.85.85,0,1,1,.85.85A.85.85,0,0,1,99.34,4.87Z"/><path class="cls-2" d="M86,4.87a.85.85,0,1,1,.85.85A.85.85,0,0,1,86,4.87Z"/><path class="cls-2" d="M72.73,4.87a.85.85,0,1,1,.84.85A.85.85,0,0,1,72.73,4.87Z"/><path class="cls-2" d="M192,64.22a.85.85,0,1,1,.85.85A.85.85,0,0,1,192,64.22Z"/><path class="cls-2" d="M178.68,64.22a.85.85,0,1,1,.85.85A.85.85,0,0,1,178.68,64.22Z"/><path class="cls-2" d="M165.37,64.22a.85.85,0,1,1,.85.85A.86.86,0,0,1,165.37,64.22Z"/><path class="cls-2" d="M152.07,64.22a.85.85,0,1,1,.85.85A.85.85,0,0,1,152.07,64.22Z"/><path class="cls-2" d="M138.76,64.22a.85.85,0,1,1,.85.85A.85.85,0,0,1,138.76,64.22Z"/><path class="cls-2" d="M192,52.32a.85.85,0,1,1,.85.85A.85.85,0,0,1,192,52.32Z"/><path class="cls-2" d="M178.68,52.32a.85.85,0,1,1,.85.85A.85.85,0,0,1,178.68,52.32Z"/><path class="cls-2" d="M165.37,52.32a.85.85,0,1,1,.85.85A.86.86,0,0,1,165.37,52.32Z"/><path class="cls-2" d="M152.07,52.32a.85.85,0,1,1,.85.85A.85.85,0,0,1,152.07,52.32Z"/><path class="cls-2" d="M138.76,52.32a.85.85,0,1,1,.85.85A.85.85,0,0,1,138.76,52.32Z"/><path class="cls-2" d="M192,40.43a.85.85,0,1,1,.85.85A.85.85,0,0,1,192,40.43Z"/><circle class="cls-2" cx="179.53" cy="40.43" r="0.85"/><circle class="cls-2" cx="166.22" cy="40.43" r="0.85"/><path class="cls-2" d="M152.07,40.43a.85.85,0,1,1,.85.85A.85.85,0,0,1,152.07,40.43Z"/><path class="cls-2" d="M138.76,40.43a.85.85,0,1,1,.85.85A.85.85,0,0,1,138.76,40.43Z"/><path class="cls-2" d="M192,28.54a.85.85,0,1,1,.85.85A.85.85,0,0,1,192,28.54Z"/><circle class="cls-2" cx="179.53" cy="28.54" r="0.85"/><circle class="cls-2" cx="166.22" cy="28.54" r="0.85"/><path class="cls-2" d="M152.07,28.54a.85.85,0,1,1,.85.85A.85.85,0,0,1,152.07,28.54Z"/><path class="cls-2" d="M138.76,28.54a.85.85,0,1,1,.85.85A.85.85,0,0,1,138.76,28.54Z"/><path class="cls-2" d="M192,16.64a.85.85,0,1,1,.85.85A.85.85,0,0,1,192,16.64Z"/><circle class="cls-2" cx="179.53" cy="16.64" r="0.85"/><circle class="cls-2" cx="166.22" cy="16.64" r="0.85"/><path class="cls-2" d="M152.07,16.64a.85.85,0,1,1,.85.85A.85.85,0,0,1,152.07,16.64Z"/><path class="cls-2" d="M138.76,16.64a.85.85,0,1,1,.85.85A.85.85,0,0,1,138.76,16.64Z"/><path class="cls-2" d="M192,4.75a.85.85,0,1,1,.85.85A.85.85,0,0,1,192,4.75Z"/><path class="cls-2" d="M178.68,4.75a.85.85,0,1,1,.85.85A.85.85,0,0,1,178.68,4.75Z"/><path class="cls-2" d="M165.37,4.75a.85.85,0,1,1,.85.85A.86.86,0,0,1,165.37,4.75Z"/><path class="cls-2" d="M152.07,4.75a.85.85,0,1,1,.85.85A.85.85,0,0,1,152.07,4.75Z"/><path class="cls-2" d="M138.76,4.75a.85.85,0,1,1,.85.85A.85.85,0,0,1,138.76,4.75Z"/></g></g></svg>