<?xml version="1.0" standalone="no"?>
<svg xmlns:xlink="http://www.w3.org/1999/xlink" id="wave" style="transform:rotate(0deg); transition: 0.3s" viewBox="0 0 1440 230" version="1.1" xmlns="http://www.w3.org/2000/svg"><defs><linearGradient id="sw-gradient-0" x1="0" x2="0" y1="1" y2="0"><stop stop-color="rgba(255, 255, 255, 1)" offset="0%"/><stop stop-color="rgba(255, 255, 255, 1)" offset="100%"/></linearGradient></defs><path style="transform:translate(0, 0px); opacity:1" fill="url(#sw-gradient-0)" d="M0,69L80,84.3C160,100,320,130,480,153.3C640,176,800,192,960,164.8C1120,138,1280,69,1440,42.2C1600,15,1760,31,1920,53.7C2080,77,2240,107,2400,111.2C2560,115,2720,92,2880,76.7C3040,61,3200,54,3360,46C3520,38,3680,31,3840,53.7C4000,77,4160,130,4320,130.3C4480,130,4640,77,4800,65.2C4960,54,5120,84,5280,107.3C5440,130,5600,146,5760,126.5C5920,107,6080,54,6240,42.2C6400,31,6560,61,6720,76.7C6880,92,7040,92,7200,111.2C7360,130,7520,169,7680,187.8C7840,207,8000,207,8160,172.5C8320,138,8480,69,8640,42.2C8800,15,8960,31,9120,57.5C9280,84,9440,123,9600,118.8C9760,115,9920,69,10080,76.7C10240,84,10400,146,10560,145.7C10720,146,10880,84,11040,57.5C11200,31,11360,38,11440,42.2L11520,46L11520,230L11440,230C11360,230,11200,230,11040,230C10880,230,10720,230,10560,230C10400,230,10240,230,10080,230C9920,230,9760,230,9600,230C9440,230,9280,230,9120,230C8960,230,8800,230,8640,230C8480,230,8320,230,8160,230C8000,230,7840,230,7680,230C7520,230,7360,230,7200,230C7040,230,6880,230,6720,230C6560,230,6400,230,6240,230C6080,230,5920,230,5760,230C5600,230,5440,230,5280,230C5120,230,4960,230,4800,230C4640,230,4480,230,4320,230C4160,230,4000,230,3840,230C3680,230,3520,230,3360,230C3200,230,3040,230,2880,230C2720,230,2560,230,2400,230C2240,230,2080,230,1920,230C1760,230,1600,230,1440,230C1280,230,1120,230,960,230C800,230,640,230,480,230C320,230,160,230,80,230L0,230Z"/></svg>